/* XPM */
static char *b11978fd507a4c87d7b8ada3ac6ebfeaivw6tOqKYDdIUWaH[] = {
/* columns rows colors chars-per-pixel */
"73 73 184 2 ",
"   c #3D8F3D",
".  c #37953C",
"X  c #3B943D",
"o  c #37983C",
"O  c #3E993F",
"+  c #3A9443",
"@  c #3F9944",
"#  c #468E45",
"$  c #538F4C",
"%  c #5C8F4D",
"&  c #439543",
"*  c #4A9345",
"=  c #429B44",
"-  c #4A9847",
";  c #479548",
":  c #4C964A",
">  c #459C48",
",  c #4D9A4B",
"<  c #55934C",
"1  c #5B944D",
"2  c #539B4C",
"3  c #5C9A4E",
"4  c #5D8F51",
"5  c #559452",
"6  c #5B9552",
"7  c #579C53",
"8  c #5C9B53",
"9  c #5F9B59",
"0  c #628F4C",
"q  c #63944E",
"w  c #69924E",
"e  c #639B4E",
"r  c #699D4F",
"t  c #639554",
"y  c #6C9554",
"u  c #639C53",
"i  c #6B9C54",
"p  c #639C59",
"a  c #6A9D59",
"s  c #729554",
"d  c #7C9453",
"f  c #729D54",
"g  c #7B9B56",
"h  c #729D59",
"j  c #7B9C59",
"k  c #41A147",
"l  c #44AD46",
"z  c #45A349",
"x  c #4BA44D",
"c  c #45AE4A",
"v  c #4AAB4C",
"b  c #52A44D",
"n  c #5EA24F",
"m  c #58AB4E",
"M  c #46B14A",
"N  c #4CB44C",
"B  c #4BB84C",
"V  c #53B24F",
"C  c #4BA450",
"Z  c #4EAA51",
"A  c #55A452",
"S  c #5DA353",
"D  c #55AC53",
"F  c #5EA45A",
"G  c #54AE59",
"H  c #5DAC59",
"J  c #45B351",
"K  c #4DB351",
"L  c #52B654",
"P  c #59B155",
"I  c #55B954",
"U  c #5AB854",
"Y  c #56B15A",
"T  c #5CB55A",
"R  c #5DB95D",
"E  c #63A453",
"W  c #6BA354",
"Q  c #64AB55",
"!  c #6CA955",
"~  c #63A35B",
"^  c #6CA35B",
"/  c #63AC5B",
"(  c #6BAB5B",
")  c #73A354",
"_  c #7DA354",
"`  c #70AD55",
"'  c #72A45B",
"]  c #7BA45B",
"[  c #73AC5C",
"{  c #7BAC5D",
"}  c #64B155",
"|  c #6CB155",
" . c #64B35A",
".. c #6CB35C",
"X. c #66B95E",
"o. c #6EB95D",
"O. c #74B35C",
"+. c #7BB25D",
"@. c #74B85D",
"#. c #79BA5E",
"$. c #6EA762",
"%. c #64AC60",
"&. c #6CAB63",
"*. c #73A560",
"=. c #73AB62",
"-. c #76AE62",
";. c #71AF64",
":. c #78AE60",
">. c #7AAD62",
",. c #66B263",
"<. c #64B462",
"1. c #6AB160",
"2. c #6BB463",
"3. c #68B763",
"4. c #6CB560",
"5. c #6BB863",
"6. c #75B160",
"7. c #75B362",
"8. c #7CB362",
"9. c #7BB562",
"0. c #76B862",
"q. c #74BB62",
"w. c #75B964",
"e. c #7BBB63",
"r. c #75B968",
"t. c #7EBA6C",
"y. c #7FBE6C",
"u. c #849A55",
"i. c #839C59",
"p. c #8A9D59",
"a. c #8E9E59",
"s. c #939F59",
"d. c #87A353",
"f. c #86A453",
"g. c #8AA655",
"h. c #81A45B",
"j. c #82A55C",
"k. c #82A65D",
"l. c #86A958",
"z. c #81AC5B",
"x. c #84AB5D",
"c. c #8AAE5C",
"v. c #8EAE5D",
"b. c #90A55D",
"n. c #92A85E",
"m. c #9AA85F",
"M. c #83B05E",
"N. c #83B45E",
"B. c #82B75E",
"V. c #8FB45A",
"C. c #81B85E",
"Z. c #8AB95D",
"A. c #88BA5F",
"S. c #92B25B",
"D. c #91B45B",
"F. c #93BA5D",
"G. c #94BA5D",
"H. c #80A461",
"J. c #85AE61",
"K. c #88AF62",
"L. c #81B264",
"P. c #82B564",
"I. c #89B160",
"U. c #8AB364",
"Y. c #83BB64",
"T. c #83BA65",
"R. c #8BB963",
"E. c #8CB967",
"W. c #81B36C",
"Q. c #83B868",
"!. c #80BB68",
"~. c #83BC6B",
"^. c #83BF6D",
"/. c #8BB969",
"(. c #89B96C",
"). c #9AB364",
"_. c #9CB963",
"`. c #92B46B",
"'. c #90BF6B",
"]. c #90BF6C",
"[. c #9CBA7A",
"{. c #86C066",
"}. c #9FC060",
"|. c #91C972",
/* pixels */
"8 & - q z.7 r.p a.! A $ Q T.i O.f #...Q O 8 6 E v.0.{ E S %.< ( 8 @ - u M.2 w.p b.! b 5 ( R.y @.) e...Q @ 8 6 E v.9.{ ! 8 / < ( 8 & , 1 x.7 r.8 a.",
"@ 8 t.6 i W 1.] i [ =.+ 0.{ ^ ( e  ...y . ( 8 Y.j u d E > I.6 < @ 6 P.6 i W 1.] i [ *.+ @.{ ^ ( 8 Q ..s . ( 5 C.g E d S = K.6 < O 6 P.6 i ! ..] i ",
"n.i +.#.e a 8 r o.F ^ S S ! O.p ~ z 2 < p t.y A 1 ..~ y 7 R.E 3 n.W +.#.i i 8 i ..F a F S Q &.8 ~ z 2 < p !.y A 1 4.E y 9 E.S 8 n.! +.e.i i 8 i ..",
"z.i ) ( } 3 ' / T * =.H j g f ^ & %.5 h 8 O.h., p v ~.! t j - @.z.i f ( T 3 ^ Q T * 7.H j g s [ @ / 5 ) 8 6.] , p c ~.( 6 ] , +.z.i f .. .3 W / T ",
"q ` 8 u Q ( W X.1 3.,.O.u y.i e 3 ..d.i $ t a t X 5 j...-.@ Q O.q O.6 u Q ( W X.8 <.<.O.u t.i i 8 ..d.a < 6 ^ y X 5 x...-.& E O.q ! t u Q ..W X.6 ",
"_ O.p ( ! 2 7 :.g ( G.u 3 D 0.W h.0.l.p [ t ^ T.6 * y A O.: / t ) O.u ( Q 2 7 { g Q G.u 3 V q.W h.O.l.u *.t ^ T.6 # y A O.,  .1 ) O.u / ! 2 7 O.j ",
"W #.2 O.9.! ' ( [ E _ t [ y Q 0.s E ' |.*.^ R +.9 ^ d 8 ..*.+ Q h #.2 O.9.! [ ' ] E _ u [ y Q 0.s E ' /.:.^ R { 9 ^ d 8 ..$.+ ! W #.2 O.8.! ' ' ' ",
"e _.! i D.T.^ e q _ h y P.1 3 #.u d E @.f e.Q E , (.5 E F ~.9 5 r G.! f S.Y.^ 8 q g h y L.1 8 M.u g Q 0.f e.Q E < ~.5 E F ~.9 < i _.W i S.R.^ 8 q ",
"1 W ] C.x.S ^ 4 4.f y 3 R.S e E ..t U.) .. .E h 2 M S U.S Q e.8 1 W g e.l.n ' 5 ..f s 3 R.S 3 Q | t I.f O. .E i 2 M S Z.S Q 0.3 1 W g R.z.n ^ 5 / ",
") a v e.1 j p.2 P.T d w 1 & ~ t & 1 S y &.z < E u ' S D R.8 ;./ ) a v e.1 ] i.3 P.T d w 1 - ~ t & 3 n i &.z 8 E u ' 9 A /.8 ;. .' a v e.1 ] i.< [ ",
"O.,  .5 3 { {.x.6 p x ] p Q < X <.$ 6 1 O 8 5 E Q ^ j.x ! ] ! ( O., X.5 1 { {.h.6 p x ] 5 Q < + <.< 6 1 @ 5 5 E / ! j.C Q ] W ' O.; X.5 3 { R.] 5 ",
"J.X > < ' X.{ i U.S < ! * 6 8 R W.+ ' j.E 3 V.%.> Q 8 i { ' u ' c.X > < [ X.{ i R.E < Q * 4 8 T t.+ ' h.S S V./ > Q 8 i +.' E ' J.X = < ' X.[ u :.",
"Q ^ ^ 8 ,.%.8 i ^ S < 8.. p 0.$.' / 6 8 { n l.& F ~ ^ P.i t v ..Q ^ ' 8 3.( 8 i ^ m < 8.X 6 w.$.h / 6 6 ] E x.@ F ~ ' P.i y v ..Q ^ ' 8 2./ 1 u W ",
"6 e ( I.P ) t I q X 9 ..a : >.& N.i 8.@ @.Z.y *   = h Q.E W / ~ t 7 ( I.P ' t L q X ~ ( ^ : J.& R.i 8.@ @.V.y * X > y P.E W / ~ 8 8 ( J.P ) 6 D e ",
"p z S 8 ' y t [ X.i < h y -.7 i { x.U , +.s y h : s ' U.b.{ i g.p z S 8 ^ i 8 -.<.i < h y -.S i [ x.U , 9.f s h - s ^ U.n.{ y d.p k E 8 ' i 6 ( ^ ",
"O H A S J.[ ' h | 8.1 f ~ ..% U w.v F ' O.U.] U.e.s % l.W I.) x.O P A 8 c.' ' h ! P.< f ~ ..% I w.b A =.[ I.] K.w.j 1 l.W I.) x.@ H A 8 J.' ^ i S ",
"/ 5 A / u { ( x.u M M { @.] I t.( h.O.O O *.e.] o.8 t x.( < 8 |./ 5 v &.u [ [ x.u M M ' O.] I ~.^ j.O.O + { #.] ..3 q c.( < 2 |./ 5 D &.8 [ ^ ] 8 ",
"6 f.C.8 $./ { E ^ M 8 & E 3 C.Q Q 6 ' X u I ! i ;.K 1 | i x 0.Q 7 f.M.3 $.~ { 8 ' M p & E u Y.Q Q 8 ' . ~ I [ i 6.K 1 | i x 0.Q 6 d.9.3 $.E ( S 9 ",
"Q _ +.1 & t 0 S u ..& 6 1 r 3 S ~ Q 6 8 N D i ~ z.b i z.q E H a Q g O.1 & p q E u X.@ 1 1 i 6 8 ~ Q 6 8 B D i t j.C i M.p ~ S a E _ +.e & 8 4 5 5 ",
"_ i t.A ^ G s < < Q x 6 * i a @ s 3.< l ( i ^ 6.= 1 E u 1 < 6 i d.i t.A W P s < < } x t & r i k s ..$ M ' i ^ 6.= 8 E t 1 < 8 i _ i t.b ^ G y $ ; ",
"] s , 8 ' M w.e a i.3 0.3 1 l t.3 S 1 n.[ ) 6.` 2 H 6 _ E u.R.~.] y , 8 ^ v 0.3 a p.3 0.8 1 M e.3 S 1 b.[ ) 9.` , H 8 _ E u.P.T.] s , 8 &.c 4.8 u ",
"e.j 1 E O 5 $.#.< q ! R.d ).Q +./ < X W r s i 6.;.J ! i i W r R.e.i.1 E @ 7 ( e.2 0 E R.d ).Q +./ < O W w i i [ 7.M ^ W i W i R.e.i.1 E = 8 ^ ! 5 ",
"/ ( i O.o * i R.O.q +.6 D.O.x.3 ~ f 7 3 3 ( ' 5 $.5.8 u m 2 i 8 / ( y O.X * i U.O.1 #.1 U.O.x.1 ~ h 3 7 3 ..^ 5 ^ 3.S e m 1 i 3  .&.i ... * i -./ ",
"{ / @ E ~ !.u 6.(.p ~., +.&.& E / 6 ] , p v `.A : Q s ..[ t h > [ / @ E ~ T.^ 6.E.p !.< { &.& E Q 5 ] , p v `.A , ^ s 5.` t h & [ ~ & E ^ e.W &.8.",
"8 O 5 F 5 o.u s E { i 1 E @ p ^ s ; e '.8 1 Q N E e m.5.X D %.( 8 @ 8 F 8 o.u h E { i < E & p ^ s : i /.u 1 Q N S p m.5.X G <.( 8 O 5 F 6 o.u y 8 ",
"j.w.8 f.~ w.Q 1 h.y 8 = 7 O.' { & 3 8.` ] E s #.L 5 2.3 L [.J h j.0.1 d.p w.E 1 ] y E = 7 O.' 6.= 8 #.O.) Q s O.L 5 &.t K [.J h j.w.8 f.F w.E 1 h.",
"8 J.w._ X S 9  .s.< $.&.8 , i ! A  .( ) i O.i.K.b * ] f ,.9.S y 8 J.w._ X 8 5 ..s.% ^ [ 8 * i ! A H Q _ i O.i.I.b & ] ) 3.x.u y 8 J.w._ X 9 8 ..s.",
"O W Z.8.: O x U.% ! Q ( h ; :.W y.c W +.^ 3.W ` &.a s 6 * ] i ^ O E A.P.: @ v 8.6 Q Q ( ) : :.a y.c ( { ^ 5.W ^ 6.a s 5 * ' i ^ X W R.8., O z P.4 ",
", a ' c.P., U.u }.a > q n t M 5 ^ / 8 u & w.p E Q y `.~ a ) Y.b , W h J.R., U.u }.a > y u t c 5 ^ Q 7 E & 0.p Q E i `.F a W /.x , ) ) J./., I.E }.",
":.[ g c.U.u x.3 D.: t.W e ) O.H.u F p p.1 8 g.4.z i j.P.b ^ , < >.` g c.U.8 x.u D.; ~.i e ' o.:.p S p p.1 1 g.&.z i j.Q.b ^ , 5 ' [ j c.I.u x.e D.",
"M   P.` /.8 8 ( u p x.<.i f { h O.P.& [ J.E v.= / ( 8 8.t.i d ! M + P.| /.u 7 ( 8 p x.X.e f { j 6.U.& ! K.Q v.= / ^ 3 +.~.i g ! N   P.| (.8 8 ( E ",
"X 2.N [ i ^ K n E -.@ Q O.r y v 3.a X.O.2.z ! E E H.E u.S 3 t T.X 2.N O.i ^ K e E 6.= Q O.i y v <.^ X.{ 3.k ! ! E x.E i.8 3 e T.X 2.N [ i ^ K 8 S ",
"6 @ - u x.5 r.8 b.! A < Q A.i @.) e...Q = 8 6 Q n.6.:.E E %.< ^ 8 & , u z.7 w.p a.! A 5 Q R.y O.) #...Q O 8 5 E V.9.{ W 8 %.< ( 8 & , q M.2 r.8 s.",
"@ 8 P.6 i W 4.] i ( ' + @.{ ^ ( 3 Q ..y . ( 6 P.j u u.E @ M.3 1 @ 6 P.6 i W ..] i O.*.+ @.+.^ ( 3  ...s X ( 6 P._ 8 d E = I.6 < O 6 P.6 i W 4.] i ",
"n.W +.@.i i 8 i ..F a F E Q ;.8 p z 8 < p t.s A 3 3.u y 9 R.S 8 b.W +.#.e a 8 i ..F ^ F S ! ;.p p z 2 < p T.h A 6 ..~ y 9 R.S 8 n.W +.#.i a S r o.",
"z.i ) (  .3 ) / T * =./ j g h ^ @ %.5 ) 3 O.j x u v ~.Q 6 ] , @.z.i f (  .3 W / P * ;.H j g s ( =  .6 h 3 -.] , p v ~.Q 6 j , #.z.i ) ( } 2 ^ ~ P ",
"q ` t u Q ( ! X.1 <.<.O.u y.i e 3 ..f.i < t ^ y O 5 x...-.& E O.q O.6 u Q ( W X.1 3.<.6.u y.i e 8 ..g.a $ 6 ' t O 5 j.X.[ & Q O.q ` t p Q ( W X.6 ",
") O.u / ! 2 7 6.j ( G.8 3 m q.! h.@.l.u *.t ^ Q.6 # w G O., / 1 ) O.u ( ! 2 7 -.f ( G.u 8 m 0.! h.O.l.u *.t ^ P.6 # w F O., Q 1 ) O.u / ! 2 7 6.g ",
"i #.2 6.8.! [ ' { E _ i [ s Q 0.y i ^ |.*.^ R +.p ^ d 8 ( ;.+ ^ i #.2 O.8.! ' [ ] E _ u [ y  .O.y E ' /.:.^ R +.p ^ d 8 4.&.+ ^ W #.2 O.9.! ' ' ' ",
"e _.! ) S.T.^ 8 q g a y P.1 3 M.u d Q O.) O.Q n < (.5 S F ~.S 1 r _.! f S.T.^ 3 q g h y P.1 6 N.u g Q O.h e.Q S < (.5 S F {.S 5 i _.! f S.Y.^ 8 t ",
"1 W j Y.l.n ^ 6 ,.f s 3 R.3 e Q ..t I.) ..X.E s 2 c E Z.E E e.8 1 ! h N.l.n ^ 4 <.f s 3 R.S 3 W ..q I.W .. .E s 2 c E N.S Q e.1 1 i j e.l.n $.5  .",
") a v e.1 ] i.< 9. .d w 1 & ~ 6 + e S y &.z 3 E p [ 7 D R.8 ;. .) a v e.1 ] p.2 M.T d w 6 ; ~ 6 X 3 E i &.z 8 E 8 [ 8 G R.8 ;. .) a Z #.3 ] i.< [ ",
"O.: X.5 3 { {.j.5 p x ' p Q 1 @ <.$ 6 5 = 5 5 S Q ^ { C ! ] ! ( O.; X.5 1 { {.h.6 p x ] 6 Q < X <.$ 6 1 O 9 5 S Q ^ j.C Q ] ^ [ O.2 T 5 3 { Y.) 6 ",
"J.X = < ' X.{ i R.S 1 | * 6 6 T Q.+ *.h.n 8 D./ > E 8 y { ' u ' v.X > < [ X.{ i P.S < | * 6 8 T W.+ ' h.S 3 V./ > Q 3 i +.' u ' J.X > < ' o.[ i *.",
"Q ^ ' 8 5.&.3 W W S < { X p 0.$.] / 5 8 { E x.O E ~ ^ P.i t v ..Q ^ ' 7 5.&.8 i ^ S < 9.X 8 r.$.' / 5 p { E l.@ F p ^ P.i y v | Q ^ ' 8 5./ 1 u W ",
"8 3 ( J.P ) t I q   F 1.a : :.& R.a 8.O @.Z.y *   = h Q.E W H ~ 8 7 [ M.P ) t L q O p ..^ : J.& U.i 8.= @.Z.y * X = h P.E W H ~ 8 3 ( J.P ) 6 D e ",
"p z E 8 ' i u [ X.y < h y 6.S i ' x.U 2 e.s s s : s ' /.b.{ i g.p z S 8 ' i 8 -.X.y < h y O.S i ' x.U , P.s s h : s ' U.b.{ i g.p z S 7 ' y t ( ( ",
"O H A 8 J.' ' h ..P.< f ~ 4.% U w.x A [ [ I.] I.e.s % l.^ I.) M.@ H A 8 c.' ' h ! P.< f ~ ..% L w.b A [ [ K.] K.w.g 1 l.W U.) x.@ H A S J.' ^ t S ",
"/ 5 Z &.E [ [ j.i l N ] @.] K t.^ h.@.O X { #.] o.7 t c.` < 3 |./ 5 C ( E [ [ x.u M M ) @.] I t.( h.O.@ @ ] 0.] o.8 1 x.O.: 3 |./ 5 A ( u [ W ] 8 ",
"6 f.#.3 *.~ { S ^ M 8 & E 1 Y.( Q 2 ' X ~ I [ i 7.v 1 ..i x 6.Q 6 f.Y.3 $.~ { 8 ' M 9 & E 3 C.( Q 8 ' X ~ I ` i 8.M 1 | i , w.Q 3 f.C.7 $./ [ 7 ~ ",
"E _ +.e & t t S u ..@ 8 < i 6 n ~ Q t 8 M D i t x.C e x.8 ~ Q a Q g +.3 & t 0 E u X.& 1 1 i 6 3 ~ Q 6 8 N D u i H.C i x.u ~ S a Q g +.1 & 6 t 8 6 ",
"_ y t.b ^ D s 1 < } x 8 & i i k s ..< c ( i ^ 7.= 1 W e 1 < 6 i _ i t.b ^ Y s < < } x 8 * i a = s ..< l ( y ^ 6.= 8 ! q 1 < 8 i _ i t.A ^ G w 5 5 ",
"] y - 6 ' v w.1 a p.3 0.8 1 l 0.3 n 1 n.O.W 9.! , H 1 ) E u.R.t.] y - 8 ^ v 0.3 a i.3 0.8 1 l e.3 S 1 b.[ ) >.! 2 H 1 _ E u.P.{.] y , 8 ^ v w.< u ",
"e.i.1 Q @ 8 ( @.< q ! R.d ).Q +./ < X W i h s O.;.J ^ ) u W r U.Y.i.1 Q = 8 ( e.2 q W R.d ).Q +./ < X W e h f 7.;.J ^ W u W i R.T.i.1 E @ 7 ^ O.< ",
"/ ( i ..o > i R.O.1 O.6 U.O.x.e ~ ) S 3 1 ( ^ 5 ^ 5.S u m 3 i 3  .( y ..X & i U.O.6 #.1 R.O.c.1 ~ h 3 7 1 ..^ 5 ( 3.S u m 1 i 8 / ..i O.o > u R.( ",
"[ &.= E ~ !.i 6./.p (.2 { &.= E ~ 5 ] , p v `.A , ^ i 1.{ t h > [ / & E ~ T.W ;./.p !.< +.&.& E Q 5 ] , u v `.A : ^ y ..[ t h > [ ~ @ E ~ T.i ;.8.",
"5 O 8 F 8 o.u s S +.u 6 E O 6 ^ s ; t Y.W 1 Q B S t m.2.  G ,./ 8 @ 5 F 8 o.u y E x.i < E @ p ~ s : e '.u 1 Q N S u m.5.X G %.( 8 @ 5 F 8 o.u i 7 ",
"x.w.6 d.~ w.E 1 h.y u = S O.' :.= 6 e.[ ] E s +.L 8 2.t L [.J h j.w.1 f.~ w.E 1 h.s u = 8 O.' 8.& 1 #.O._ E s O.V 8 ;.6 L [.M h j.w.3 f.~ w.E 1 ] ",
"8 c.0._ X 7 8 ..s.$ ^ =.7 * i ! A T ( ) e +.j U.b & ' ) <.L.E y 8 x.w.f.X 9 9  .s.$ ^ [ S ; i ` A T ( ) u @.i.K.b & ] ) 1.P.9 y 8 x.w.h.X 9 8 ( a.",
"O ~ Z.8.: @ x 8.0 ! Q ( ] : :.i y.c ! +.^ 3.W ! -.a s 5 * _ i ^ X W A.t.- O x P.6 Q Q ( ' * *.i y.c ^ +.^ 5.W ( &.a s 6 * ' i ^ X W Z.8.; @ z 8.6 ",
"- i h I.P., U.i }.a * r S t M 5 i / 7 e * r.~ E E i `.F i ) U.x , h ) J.R., U.u _.^ = w E t c 7 a / 8 u * w.~ E E i `.F i W /.b , W ) J./.; U.u S.",
":.[ g c.U.u J.8 Z., y.i t ' o.j.p S p p.1 6 d.4.z i j.P.b ~ , 5 :.[ g x.U.8 x.8 F.* t.i q ' O.j.u H p i.1 1 g.&.z i x.P.b ^ , 5 *.[ g v.U.u j.8 M.",
"N + P.| R.u 8 ( u p x.R i f ] h 7.R.& O.x.E l.= / ^ 8 8.~.i d ! M X P.| /.8 8 ( u p z.X.r s ] h ;.R.* O.K.Q V.& / ^ 3 8.t.i g ! N X P.| (.3 3 Q 8 ",
"  5.N [ i ^ N 3 E -.= Q @.i y v 3.a X.{ 2.z ! ! E l.S p.E 3 t T.X 3.N O.i ^ K e S -.= Q @.E i x 3.a  .O.3.z E ! E x.S p.8 3 e e.X 2.N [ i ^ N 8 S ",
"8 X , u z.7 r.p b.W b 5 ( R.y @.h #...Q O 8 5 E v.9.{ W 8 %.< ( 8 & , q M.2 w.9 p.! A < ( Z.i O.) #...Q O 7 6 E V.9.] ~ S / < ( 3 & , 6 c.2 w.5 i.",
"& 6 P.6 i W ..] i [ *.+ @.{ ^ ( 3  ...s X ( 8 P.g E d E = I.6 < & 6 P.6 i W ..] i [ =.+ 0.{ ^ ( 8  ...y . ^ 8 P._ u d E = K.6 < @ 6 P.6 i ! %.] t ",
"n.! +.#.e i 8 i ..F a ~ S Q 2.8 p x 2 < p !.y A 1 ..~ y 9 /.S 3 b.W +.#.i u S i ..F a F E Q 1.p p z 3 < p T.y A 6 3.~ y 9 R.E 8 n.W +.#.e a 8 u H ",
"z.i h Q  .3 ^ / T * ;.H j g s [ = / 5 ) 8 6.j x p c ~.Q 6 j , #.z.i ) ( } 3 ' / T * &.H j g s ) & / 8 ' 7 -.] x u v ~.Q 6 j , O.z.i f ..Q 2 ^ F A ",
"q ` 6 8 Q ( W X.6 <.<.O.i y.i r 8 ..f.a $ 6 ^ y X 6 j...-.& E O.q ` q u Q ..W X.1 3.<.O.i {.i e 8 ..g.a $ t ' y X 5 x...-.= Q O.q O.1 p Q ( u  .6 ",
") #.p ( ! 2 9 [ g Q G.E < V 0.W h.O.l.u *.t ^ T.8 # y D O.,  .1 ) #.p / Q 2 7 { f ( G.8 2 G 0.W h.0.l.u [ 6 ^ P.6 * y A O., H 1 ) O.p ( ( , 7 &.a ",
"i #.2 +.9.! [ ( ] Q _ p [ y  .O.y W ^ ].:.^ R { 9 ^ d 8 &.;.+ ! i #.2 O.8.) [ ^ ] E _ p [ s Q 0.s i ' {.-.^ R +.9 ^ s 9 ..' + ^ f #.2 O.+.! ^ ( a ",
"r _.! r S.R.^ 3 q _ s y L.1 3 N.u g Q O.f e.Q E < ~.5 S F {.8 < E _.W f S.Y.^ u e g h y 8.1 8 P.8 g E @.h O.Q E < (.< E F ~.S 1 r G.! i S.P.~ 8 % ",
"1 W g e.l.n ^ 6 3.f s e E.7 e E | t I.) O.X.E s 2 M S L.E Q @.8 1 ! g e.l.S ^ 6 o.s y 3 R.S e E ..t U.) O.Q E h 2 M S R.S Q @.3 1 W g R.z.n ^ 5 H "
};
