/* XPM */
static char *_0db67aca82d4deaeb36fdeedd3109ff2kjxDDN9CMtgd6tb[] = {
/* columns rows colors chars-per-pixel */
"32 32 16 1 ",
"  c None",
". c black",
"X c #282828",
"o c #503028",
"O c #484848",
"+ c #785840",
"@ c #803848",
"# c #987850",
"$ c #D86070",
"% c #A88000",
"& c #D09870",
"* c #E8C868",
"= c #7080B8",
"- c #F8D0B8",
"; c #B0C0D8",
": c #F8F8F8",
/* pixels */
"                                ",
"                                ",
"                                ",
"                                ",
"                                ",
"             oooooo             ",
"           oo++oo++oo           ",
"      ooo .o+++oo+++o. ooo      ",
"     o+#o.o+#++++++#+o.o#+o     ",
"    o+#++oo++######++oo++#+o    ",
"    .+#++*oo++;;;;++oo*++#+.    ",
"    .++#o*oo;;$$$$;;oo*o#++.    ",
"    .o++.%o;$$$$$$$$;o%.++o.    ",
"    ..oo..$$$;::::;$$$..oo..    ",
"     .oo-o.$::::::::$.o-oo.     ",
"      ..&oo.$::::::$.oo&..      ",
"       o.+o&:.$$$$.:&o+.o       ",
"      .+.+o-:.----.:-o+.+.      ",
"      .+o.+.--------.+.o+.      ",
"     .++o . .&-&&-&. . o++.     ",
"     .+o   .=OO++X.=.   o+.     ",
"     o+o..@&O.;$$;.O&@..o+o     ",
"      o.-&&O .;OO;X..&&-.o      ",
"       .--. .;:$$:XX;.--.       ",
"        .. o*;:::X:@:@..        ",
"           .**;;;X:$$$@         ",
"           .O***##X$$@          ",
"            XOO##OOX@           ",
"            .@@..@@.            ",
"            .=;..;=.            ",
"             ..  ..             ",
"                                "
};
