/* XPM */
static char *_de6bae625c34fd0f82f8116f5fecc8cAiq6IjUC4InQCDrN[] = {
/* columns rows colors chars-per-pixel */
"24 24 10 1 ",
"  c None",
". c gray19",
"X c #505080",
"o c #6868B8",
"O c #5078C8",
"+ c #50A0F0",
"@ c #58D0F8",
"# c #98A0B8",
"$ c #B8C0F8",
"% c #E0E8F8",
/* pixels */
"                        ",
"                        ",
"                        ",
"             ...        ",
"           .X%%%.       ",
"        ...#X$%%%.      ",
"      ..++X$XX$$#.      ",
"     .++@@@#$XXXX$.     ",
"    .+o@@@@@X#$$$XO.    ",
"    .+@@@@@@+XXXXO+O.   ",
"   .o+@@@+@@++++++++.   ",
"   .+++o@@@++++X++o++.  ",
"   .o++++++++++++++++.  ",
"   .++++++++o+++++++O.  ",
"   .o+++++X++++++++Oo.  ",
"    .O+++++++++++OoXo.  ",
"    .ooOX+++++Oooooo.   ",
"     .oooooooooooooo.   ",
"      .XooooooXoooX.    ",
"       ...XoooooX..     ",
"          .......       ",
"                        ",
"                        ",
"                        "
};
