/* XPM */
static char *result[] = {
/* columns rows colors chars-per-pixel */
"32 32 7 1 ",
"  c gray25",
". c #606058",
"X c #F06050",
"o c #C0A828",
"O c #F0F028",
"+ c #F8F8F8",
"@ c None",
/* pixels */
"@@@@@@@@@@@@@@@@@@@@@@@@@@@@@@@@",
"@@@@@@@@@@@@@@@@@@@@@@@@@@@@@@@@",
"@@@@@@@@@@@@@@@@@@@@@@@@@@@@@@@@",
"@@@@@@@@@@@@@@@@@@@@@@@@@@@@@@@@",
"@@@@@@@@@@@@@@@@@@@@@@@@@@@@@@@@",
"@@@@@@@@@@@@@@@@@@@@@@@@@@@@@@@@",
"@@@@@@@@@@@@@@@@@@@@@@@@@@@@@@@@",
"@@@@@@@@@@@@@@@@@@@@@@@@@@@@@@@@",
"@@@@@@@@@@@@@@@@@@@@@@@@@@@@@@@@",
"@@@@@@@@@@@@@@@@@@@@@@@@@@@@@@@@",
"@@@@@@@@@@@@@@@@@@@@@@@@@@@@@@@@",
"@@@@@@@@@@@  @@@@@@@@@@ @@@@@@@@",
"@@@@@@@@@@ . @@@@@@@@@ O @@@@@@@",
"@@@@@@@@@@ O @@@@@@@@ Ooo @@@@@@",
"@@@@@@@@@ OO @@@@    Oooo @@@@@@",
"@@@@@@@@@ Oo @@  ..  ooo @@@@@@@",
"@@@@@@@@ OOOO  OO.  ooo @@@@@@@@",
"@@@@@@@ OOOOOOOOO @ oo @@@@@@@@@",
"@@@@@@ +OOOOOOOOo @@ oo @@@@@@@@",
"@@@@@@  OOOOOOOOOo @@.o.@@@@@@@@",
"@@@@@@ OOOO+ OOOOoo .o.@@@@@@@@@",
"@@@@@@@ OOO  XXOooo ..@@@@@@@@@@",
"@@@@@@@@ oOOOXoooo.. @@@@@@@@@@@",
"@@@@@@@@ Oooooo oooo @@@@@@@@@@@",
"@@@@@@@@@  oOO Oooo..@@@@@@@@@@@",
"@@@@@@@@@.o.ooo oooo.@@@@@@@@@@@",
"@@@@@@@@@.....ooooo.@@@@@@@@@@@@",
"@@@@@@@@@@@@@@...o..@@@@@@@@@@@@",
"@@@@@@@@@@@@@@@.OOo.@@@@@@@@@@@@",
"@@@@@@@@@@@@@@@@...@@@@@@@@@@@@@",
"@@@@@@@@@@@@@@@@@@@@@@@@@@@@@@@@",
"@@@@@@@@@@@@@@@@@@@@@@@@@@@@@@@@"
};
