/* XPM */
static char *_878c6f19cf14822b26ea3f34f57452atbcLatVv7s7HeXvh[] = {
/* columns rows colors chars-per-pixel */
"32 32 12 1 ",
"  c None",
". c #323231",
"X c #353637",
"o c #535352",
"O c #AE702D",
"+ c #F76352",
"@ c #C4A329",
"# c #C6A529",
"$ c #F5D531",
"% c #F7D631",
"& c #9D8542",
"* c gray99",
/* pixels */
"                                ",
"                                ",
"                                ",
"                                ",
"                                ",
"                                ",
"            ..                  ",
"           .o.         ..       ",
"           .o.        .%#.      ",
"          .##.    ....%###.     ",
"          .#&X  ..ooo%###@X     ",
"         ..#.  .%%oo####@X      ",
"        .#%%%..%%%o####@X       ",
"       .%%%%%%&%%o@###@X        ",
"       .%%%%#%%%&.X@##.         ",
"      .%%%%#*.%%%. X@##.        ",
"      X%&%%%.o%%%%. .#@X        ",
"       .$%%%%++%%%%.#@X         ",
"      X@o@%%%++%%%OoO.          ",
"       XXX@#%$o%%%%%oOX         ",
"          .##o$$o%%OoX          ",
"          X@#%oo%%%$.           ",
"           X@@%%%%%oX           ",
"            XXX%$%$X            ",
"               X.%X             ",
"                XX              ",
"                                ",
"                                ",
"                                ",
"                                ",
"                                ",
"                                "
};
