/* XPM */
static char *abef61d71b4b4f51b55e544658bab43e5IFYxNWpkCg1WshR[] = {
/* columns rows colors chars-per-pixel */
"32 32 13 1 ",
"  c None",
". c #323232",
"X c gray32",
"o c #6B6B52",
"O c #8C6339",
"+ c #CC6272",
"@ c #CE6373",
"# c #B48359",
"$ c #838372",
"% c #F3798A",
"& c #BBB3A3",
"* c #BDB5A5",
"= c #FECCD4",
/* pixels */
"                                ",
"                                ",
"                                ",
"                                ",
"                                ",
"                                ",
"                                ",
"                                ",
"                                ",
"               ....             ",
"              .###O.            ",
"             .#####O.           ",
"             .O#.###.           ",
"            .%=O.###.           ",
"            .X++O###.           ",
"           .X#XX###O.           ",
"          .&XO###OOOX..         ",
"         .$ooXXOOOOOXoX.        ",
"         .ooX&*XOOXX&oo.        ",
"          ..&*oX**o$oo.         ",
"            .$$oo$$.$X.         ",
"             ..oo.. ..          ",
"               ..               ",
"                                ",
"                                ",
"                                ",
"                                ",
"                                ",
"                                ",
"                                ",
"                                ",
"                                "
};
