/* XPM */
static char *f69e83d3608e496e95a0928d826385ebhvyZP6XkmpA3JbhO[] = {
/* columns rows colors chars-per-pixel */
"63 63 220 2 ",
"   c None",
".  c #020E06",
"X  c #051409",
"o  c #08170A",
"O  c #091814",
"+  c #15131E",
"@  c #06240E",
"#  c #052C13",
"$  c #072A11",
"%  c #0C3315",
"&  c #0C3919",
"*  c #073417",
"=  c #133A18",
"-  c #181925",
";  c #091328",
":  c #2B1C36",
">  c #143729",
",  c #252D27",
"<  c #213D1B",
"1  c #08441D",
"2  c #16461D",
"3  c #1A521F",
"4  c #094A23",
"5  c #194A24",
"6  c #0A5627",
"7  c #175925",
"8  c #195D34",
"9  c #14443D",
"0  c #265C26",
"q  c #234529",
"w  c #0E642D",
"e  c #14652C",
"r  c #1B642A",
"t  c #1D6A2D",
"y  c #18662B",
"u  c #1A6D31",
"i  c #176835",
"p  c #1E7132",
"a  c #1F713B",
"s  c #23642B",
"d  c #236C2D",
"f  c #2B692C",
"g  c #29742E",
"h  c #337C2F",
"j  c #296C34",
"k  c #237432",
"l  c #2D7533",
"z  c #2D7B32",
"x  c #277839",
"c  c #327C34",
"v  c #377937",
"b  c #326E32",
"n  c #21461C",
"m  c #427E37",
"M  c #0B1F4E",
"N  c #0C2957",
"B  c #0C315B",
"V  c #3A2547",
"C  c #303150",
"Z  c #3A3064",
"A  c #463C76",
"S  c #413C58",
"D  c #155551",
"F  c #285653",
"G  c #397745",
"H  c #27695B",
"J  c #38725E",
"K  c #2C6A54",
"L  c #2D4B6B",
"P  c #2B7463",
"I  c #357964",
"U  c #366765",
"Y  c #194D7F",
"T  c #477651",
"R  c #474D76",
"E  c #4F746B",
"W  c #60556F",
"Q  c #358234",
"!  c #3A8534",
"~  c #3C833B",
"^  c #3A8738",
"/  c #2B8139",
"(  c #43833B",
")  c #4C8B3D",
"_  c #468939",
"`  c #528A3E",
"'  c #4B9235",
"]  c #489239",
"[  c #549936",
"{  c #579837",
"}  c #61973D",
"|  c #388258",
" . c #498944",
".. c #538D42",
"X. c #578B47",
"o. c #5B9143",
"O. c #589246",
"+. c #528859",
"@. c #639543",
"#. c #6C9B44",
"$. c #69994A",
"%. c #739D46",
"&. c #729D4A",
"*. c #789F4A",
"=. c #6D9151",
"-. c #7BA249",
";. c #7AA247",
":. c #6FA04D",
">. c #488768",
",. c #558668",
"<. c #4E8971",
"1. c #659774",
"2. c #718E70",
"3. c #849E52",
"4. c #83A649",
"5. c #81A547",
"6. c #88A150",
"7. c #E6997B",
"8. c #D0BD7D",
"9. c #E8A160",
"0. c #C6986E",
"q. c #563E81",
"w. c #1A5487",
"e. c #265A8E",
"r. c #3D7489",
"t. c #376B8D",
"y. c #2C5AAC",
"u. c #3562AA",
"i. c #3260BA",
"p. c #3D6BB8",
"a. c #525D93",
"s. c #565488",
"d. c #725585",
"f. c #5A6495",
"g. c #4A7C96",
"h. c #4C788B",
"j. c #746F8F",
"k. c #685BB5",
"l. c #664FAD",
"z. c #4A76B1",
"x. c #6968A1",
"c. c #6C63BB",
"v. c #746BBC",
"b. c #7277AA",
"n. c #4674C3",
"m. c #507CC0",
"M. c #7762CA",
"N. c #706AC7",
"B. c #7D75D4",
"V. c #7F7AD9",
"C. c #746DC5",
"Z. c #8B7D95",
"A. c #9A75B9",
"S. c #8775B3",
"D. c #A674B6",
"F. c #AF71BC",
"G. c #827BD7",
"H. c #8379D6",
"J. c #AE77C1",
"K. c #B277C3",
"L. c #5D838E",
"P. c #558997",
"I. c #4C8997",
"U. c #6D9194",
"Y. c #5788B9",
"T. c #539DAD",
"R. c #6D96A8",
"E. c #66ACB0",
"W. c #5B85CB",
"Q. c #6A8DCA",
"!. c #6194CA",
"~. c #689ECD",
"^. c #6488D0",
"/. c #6CA5CC",
"(. c #74ABD4",
"). c #75B1D5",
"_. c #6FABD7",
"`. c #8A858C",
"'. c #A38D9B",
"]. c #A5A79A",
"[. c #8798B7",
"{. c #C48EAC",
"}. c #D39CB2",
"|. c #D7A6BF",
" X c #B5D3B5",
".X c #E9D08A",
"XX c #DFD2B6",
"oX c #8282C9",
"OX c #9D86C4",
"+X c #899AC5",
"@X c #8883DC",
"#X c #938DDD",
"$X c #9999DE",
"%X c #AA87C2",
"&X c #B186C3",
"*X c #B69AD1",
"=X c #97A9D5",
"-X c #8BA9CF",
";X c #BCA3CE",
":X c #A7B2CD",
">X c #AEB7D2",
",X c #878DE0",
"<X c #9692E1",
"1X c #9799E6",
"2X c #87ABE0",
"3X c #9FA1E8",
"4X c #81B4E6",
"5X c #A3A4EB",
"6X c #A6A9EC",
"7X c #AAADED",
"8X c #AEB1EF",
"9X c #B1B0EC",
"0X c #86CADF",
"qX c #95D7DD",
"wX c #88CDE0",
"eX c #8FD7E4",
"rX c #94C2E8",
"tX c #B5CCE4",
"yX c #C6C9D5",
"uX c #D2CFD2",
/* pixels */
"                          u Q 7                                                           i k r                               ",
"                          ) :.) z 7                                                       ^ :.` z 7                           ",
"                           .;.;.&.X.5                                             e x p i ~ %.;.:...>                         ",
"                          d ..:.&.1.2X4XR     k z k 6               Q ( ^ c 0 2 p ] _ ! u 6 ~ :.&.1.2X4XR                     ",
"                          4 i c 1.=XyXuX>Xh.& Q { { z 5             v *.4.*. .G ^ ^ Q u # o e Q 1.=XyXuX>XE                   ",
"                          Q l u <.rXXX.XtXT.e Q { } ` v >           = ) :.<.i.n.e.a y * o ^ z p <.rXXX.XtXT.w *               ",
"            k ( ~ ~ 7 & _ ;.#.k I -XyXyX:XU.i t ( } } 2.K.J.S.W K.K.j.r H i.^.Q.n.w.4 * _ ;.} k I -XyXyX:XU.c &   0 / k #     ",
"            ) #.$.o.~ p ..&.@.k w | (._.P.k a u r _ { 2.K.%XJ.A.&X&XW % H ^.[.].W.r.* o O.:.@.k i | (._.P./ ~ z u ^ ' _ =     ",
"            v @.@.) v k 7 x x 8 i k u w w a a 7 & r ! +.D.OX-X+X-XF.`.) J y.W.^.z.B   . 7 j x 8 i x i w w a a a ^ ^ ] ^ =     ",
"      ) _ 7 * t ( ` ;.@.i U M.M.x.G p 1 & P !.!.L O g d T S.'.0.oX`.2.4.%.J y.u.B         V M.M.x.G i 4 & P !.!.g.G Q 3       ",
"    _ -.#.( 7 & v *.%...E V.7X8X<Xx.T Q P /.wXqX_.r.c E J.%X2X+X=XF.'.4.;.X.n           V H.7X8X<Xx.T Q P /.qXqX_.r.*         ",
"    _ -.;.o.G i v #. .E B.#X;X|.1XG.b.G I ). X8.wXP.h E K.&XA.b.F.&XZ.` #.X.j i 4     V B.#X;X|.$XoXx.T P ). X8.wXI.k d       ",
"    ( ;.$.U.2X4XR.G U H.5X*X7.9.}.8X<Xf.K Y.wXeX/.h.l T D.D.W S D.D.j.g G <.4X).R.K H H.3X*X7.9.}.8X$Xf.K Y.wXeX/.r.^ ^ d     ",
"    = z >.:XyXuX:XR.,.B.3X1XOX{.@X6X#Xf.u H Y.Y.h._ 8 q c Q h c z t 2 $ <.=XuXuX>XR.,.B.3X1XOX{.#X6X#Xf.p H Y.Y.r.! ] ] ! %   ",
"  l g v >.rXXX.XtXE.,.N.N.V.<X5X@XH.l.s.Q ] [ [ I i.n.e.{ { { ! z l d i I rXXX.XtXE.,.c.N.V.1X5X@XH.l.s.z ' [ [ Q 7 d r #     ",
"l ( m l P +XyXyX:XU.] ~ E @X6X7X1Xs.  o / ^ ^ H i.^.Q.z.e.h h g l ( ( l I =XyXyX:XU._ ( E @X6X6X1Xs.  o x ^ ^ p #             ",
"` *.#.v 4 > (.).P.r x k K N.oXoXH.a.d g s d g H W.[.].^.t.8 s s ` *.@...T J Q.~.h.y z k K M.G.@XB.a.s g r d k #               ",
"( o.v 1 & b X.v 7 6 t c  . .<.!.!.g.o.;.4.} f 9 y.W.^.p.M     o ( o.m v  .n       7 r z _  .>.!.!.I.O.;.4.#.f o               ",
"s f 5 = v $.X...y l O.$.$.1./.0XqX).g.%.;.5.#.0 # e.u.N       X s f 5 2 E M.M.q., c O.$.$.1.~.qXqX(.g.%.;.5.#.0               ",
"        l &.&._ d X.-.5.&.1.). X8.0XP.l ( ( T X.>   . w e 4           V H.7X9X<Xx.+.-.4.&.1.(. X8.0XP.l ! ^ +.X.>             ",
"        l $._ & @ ` 5.%. .F z.0XeX/.L.%.=.j.M.M.q.  X k { ' t 7 @   V B.#X;X|.$XH.S.6.%.) F z.0XeX/.L.*.=.2.M.M.s.            ",
"        7 7 %     b f f %   + z.Y.L.4.3.U.oX9X9X<XR - k { { [ Q 4 F H.5X*X7.9.|.9X#Xf.g %   O z.Y.L.4.4.j.H.7X9X#Xq.          ",
"                              O l -.3.`.H.#X;X|.3XH.s., / ' [ ' Q U V.3X$X[.{.@X6X#Xa.&       O b *.6.`.H.#X;X|.3XH.s.        ",
"                  G ~ l * ; i.n.t.*.2.H.3X*X7.9.}.9X,Xs.6 p / _ l H N.M.H.<X5X#XH.k.f.l & ; i.n.t.&.2.H.5X*X7.9.}.9X#XZ       ",
"              !.!.I.....E i.!.Q.n.Y F B.3X1XOX{.,X7X#XA @ 4 w x u u k E @X6X7X1Xx.k ....E i.Q.Q.n.w.F B.1X1XOX{.,X6X<XZ       ",
"      7 p H ~.qXqX).g.o.<.W.[.].^.L + k.c.V.1X6XH.H.l.C     @ 4 k ! Q J c.v.v.c.e.7 ) o.<.W.[.].^.Z + k.N.H.<X5XG.H.k.Z       ",
"    7 Q ] <.). X8.0XP.k F y.W.!.p.M     : @X7X7X3Xd.  . w 4   X k _ ^ k *           o l D y.Y.^.p.N     : @X6X7X5XU.x 7       ",
"    v ` { ,.Y.wXeX/.t.&   9 u.p.N       - c.v.v.c.Z   O i e 6 4 l _  .f O       & 7 e 1   9 u.p.N       - c.v.v.C.f.[ ' =     ",
"    k ^ [ _ P Y.Y.r./ t 2 Q [ _ * . 6 e 6 1       : 4X).R.a i e h ,.F.F.A.d.K.K.Z./ / r 3 Q [ _ & . 6 w 6 1   o c ) { [ n     ",
"    # y e 6 6 w Q ] ^ p h ' [ Q & X Q [ [ [ 7   - =XyXuX>XR.p u s E &X&XJ.S.%X&X`. .^ x Q ' [ h & X Q [ { [ 7 * g ' { [ n     ",
"            . y ^ ' h t Q [ ' Q & . 7 ] { { ' 7 D rXXX.XtXE.Q Q & - D.J.(.+X$XF.`.' z u Q [ _ Q & . e ' [ [ _ 7 $ 2 h Q 2     ",
"              / O.g # X Q [ ! z &   # e ^ ' ' Q J +XyXyX:XU.! / &   Z R.'.0.R.b.=.l $ X Q [ ! h &   # t ^ [ ' Q %   o z z z % ",
"              t r *   O ~ _ Q p *     # i G ~ ~ & - Q.~.L.Q ^ ! = - F.%X-X+X-XF.j.&   O ~ _ Q i *     # i G ~ ~ > @ Q [ { ' % ",
"                  = I !.!.I.~ i *       : M.M.x.>       . y ! ! 2 - &X&XA.S.F.%Xj.u >.!.!.g./ p *       : M.M.x.K t [ { [ c @ ",
"    5 ^ h 0     7 >./.wXqX_.r.i *     : G.7X8X<XA         * t l k T D.D.Z.S D.A.Z.>./.wXqX(.r.a *     : G.7X8X#Xa.k ! ! l #   ",
"    ( 5.4.} r 4 ~ >.). X8.wXI.k ~  .E V.<X;X|.<XH.A     # g ' ^ ^ k ( 4.} h 7 5 ^ >.). X8.wXI.p ~  .E B.<X;X|.$XB.f.e 6 #     ",
"    m *.4.*.X.G / >.Y.0XeX/.L.;.$.2.B.5X{.}.9.}.9X<XA # z { [ ] c 7 m *.4.*.+.l / >.Y.0XeX/.L.;.$.2.V.5X{.}.9.}.8X<XS         ",
"    2 _ &.,.i.n.e.^ T z.Y.L.4.;.$.2.B.1X1XOX{.<X6X#Xs.0 O.@.X.x 4 O = ( &.,.i.n.e.^ T z.Y.L.4.;.@.2.B.1X1X%X{.,X5X#Xf.3       ",
"      r H i.^.Q.n.w.1 # l ;.4.} k H c.c.H.<X5XG.H.l.s.E K.F.S.j.K.K.j.r H i.!.Q.n.w.1 $ l ;.4.{ u H c.c.G.<X5X@XH.k.f.! =     ",
"      1 H ^.[.].^.r.* o ..%.} k w e 4 C @X6X7X1XA   X T &X%XD.[.%X&XW = U W.[.].^.r.* o ..%.@.k w u 4 C @X6X7X<Xb.k _ ' 7     ",
"      0 J y.W.^.p.B   X 7 s 8 8 i k i F k.C.Q.H.Z     - D.OX-X[.-XF.Z.m J y.W.^.p.B   X 7 s 8 8 i k i F c.C.Q.H.f.z ' } ' =   ",
"    0 ` %.J y.u.B         V M.M.x.v u 4   - !.!.L o f d U v.'.0.oX`.2.6.%.J y.u.B         V M.M.x.G p 4   - !.!.t.u c } ' =   ",
"    ) 4.-.o.n           V G.8X8X$Xx.T h | ~.eXwX(.h.h E K.%X-X+X=XF.'.5.*.{ 5           V G.8X8X#Xx.T Q I ~.eXwX).L # s 7 #   ",
"    _ 4.*.o.G i 4     V B.#X;X|.$X@Xx.T I ). X.XwXI.h ,.&X&XA.S.F.&XZ.X.@.X.K a 4     V B.#X;X|.$X@Xj.T | _. X.XeXL           ",
"    _ -.:.U.2X4XR.x H H.5X*X}.9.}.8X$Xf.P Y.wXeX/.r.g T D.D.W S D.D.j.h G <.2X).R.x H H.5X*X}.9.}.8X#Xf.H Y.wXeX/.r.g k *     ",
"    ~ @.1.=XuXuX>XR.E H.1X1X'.{.@X5X#Xf.k H z.Y.h._ 8 5 h h ! h g t 2 % <.=XyXuX>XR.E H.3X1X'.{.@X6X#Xf.p H Y.Y.r./ ] ! =     ",
"5 d d t >.rXXX.XtXE.,.c.N.H.<X6X#XH.l.s.z ' [ { I i.n.t.{ [ ' ! h z d t I rXXX.XtXE.,.c.N.H.<X5X#XH.k.R Q ] [ [ ! s r 2 .     ",
"l ( ( l H -XyXyX:XU._  .E G.6X9X1Xs.  o Q ^ ^ P i.^.Q.n.e.h h g g ( m z I =XyXyX:XU._  .E G.6X7X1Xs.  o / ! ^ k %             ",
") %.#.m & 9 -X_.P.e k k K v.Q.H.H.a.t k r d p H m.[.].B.t.e s s ` %.@.( ( I Q.Q.h.t x k K v.Q.H.H.a.r d r d k #               ",
"( o.m 0 % l T m 7 7 t c  . .<.!.Q.g.O.-.4.%.j > y.m.^.z.N     o m o.` v  .<       7 t c  . .<.!.Q.g.( ( 4.#.f @               ",
"s f 5 2 ..$.$.o.k l O.$.$.1.~.wXqX).L.#.;.;.@.s > y.u.N       X 0 j q 5 E M.M.s., b O.$.$.1.~.wXqX).h.( 4.4.} s               ",
"      o ..&.#.( f  .-.;.%.1.). X8.wXP.l ^ ^ +.O.2   X y k 3           V H.9X9X#Xx.+.-.5.&.1.). X8.wXI.c &.4.5.{ =             ",
"         .@.( 2 @ ` 5.;.) K z.wXeX/.L.%.$.U.=X4XR.> o Q [ ' p 6 o   V B.#X;X|.<XG.b.6.*.( K z.rXwX/.U r v #.#...=             ",
"        7 s =   o b f f %   ; m.W.L.5.;.1.=XuXuX>XR - f [ [ [ Q 6 F H.5X*X7.9.}.8X<Xf.b %   - z.Y.t.i t r d r r %             ",
"                          ; i.n.t.*.4.;.1.rXXX.XtXh.  n z ' [ ] Q U B.1X1XOX{.,X6X#Xa.*   ; u.f.w.8 y t r *                   ",
"                  u G l D i.!.Q.n.t.;.@.<.-XyXyX>XP.k y 6 p ^ ^ Q H N.N.G.<X5X#XG.k.f.v D i.Y.[.z.e.c r r %                   ",
"                  c ..X.<.W.[.].^.g.8 l k >.(._.U.v o.f # 1 e x p u k E @X6X7X$Xx.e ~ ..<.W.[.].^.P. .z 7 $                   ",
"                  b ..o.E y.W.^.z.M O ( #.=...l X.$.=.@.q   X 4 k ^ c I c.v.v.c.R t ....J y.^.^.p.e.O.o.2                     ",
"                  . 6 s r D i.z.N o o.*.*.#.( d m #.$.o.n     X g ! ^ k *           j v _ I i.z.e.^ #.$.<                     ",
"                        X j ..m % o ` %.%.o.<   X 0 m b =       Q _ ! 7 o           o ..;.$.O.X.l  .;.o.2                     ",
"                            r %     f m m <                     z ! h =               ) 5.#.b =   X b b =                     ",
"                                                                r d =                 d m <                                   ",
"                                                                                                                              "
};
